<?xml version="1.0"?>
<svg width="467.07" height="219.59" xmlns="http://www.w3.org/2000/svg" xmlns:svg="http://www.w3.org/2000/svg">
 <defs>
  <style>.cls-1{fill:url(#linear-gradient);}.cls-2{fill:url(#linear-gradient-2);}.cls-3{fill:none;}.cls-4{fill:#fff;}.cls-5{fill:url(#New_Gradient_Swatch_2);}.cls-6{fill:url(#New_Gradient_Swatch_2-2);}.cls-7{fill:url(#New_Gradient_Swatch_2-3);}.cls-8{fill:url(#New_Gradient_Swatch_2-4);}.cls-9{fill:url(#New_Gradient_Swatch_2-5);}.cls-10{fill:url(#New_Gradient_Swatch_2-6);}.cls-11{fill:url(#New_Gradient_Swatch_2-7);}.cls-12{fill:url(#New_Gradient_Swatch_2-8);}.cls-13{fill:url(#New_Gradient_Swatch_2-9);}.cls-14{fill:url(#New_Gradient_Swatch_2-10);}.cls-15{fill:url(#New_Gradient_Swatch_2-11);}.cls-16{fill:url(#New_Gradient_Swatch_2-12);}</style>
 </defs>
 <g class="layer">
  <title>Layer 1</title>
  <g id="a3">
   <path class="cls-3" d="m243.68,209.83l0,62.17l-49.18,0l0,-62.17a24.62,25.55 0 0 1 49.23,0l-0.05,0z" id="svg_3" transform="translate(-177.95 -164.28)"/>
   <g id="svg_17" transform="rotate(26.8762 220.022 108.695)">
    <path class="cls-2" d="m244.61,115.72l0,62.12a24.62,25.55 0 1 1 -49.23,0l0,-62.12l49.23,0z" id="svg_2"/>
    <path class="cls-4" d="m219.03,198.72l0,-3a17.76,18.43 0 0 0 17.74,-18.41l2.89,0a20.65,21.43 0 0 1 -20.63,21.41z" id="svg_4"/>
    <path class="cls-5" d="m244.61,87.44l0,-47.89a24.62,25.55 0 0 0 -49.23,0l0,62.17l62.72,0l0,76.12a38.1,39.55 0 1 1 -76.21,0l0,-47.93l13.49,0l0,47.89a24.62,25.55 0 1 0 49.23,0l0,-62.08l-62.67,0l0,-76.17a38.1,39.55 0 0 1 76.21,0l0,47.89l-13.54,0z" id="svg_5"/>
    <path class="cls-6" d="m201.29,40.72l-2.89,0a20.66,21.44 0 0 1 20.64,-21.41l0,3a17.76,18.43 0 0 0 -17.75,18.41z" id="svg_6"/>
   </g>
  </g>
 </g>
</svg>