<svg xmlns="http://www.w3.org/2000/svg" xmlns:xlink="http://www.w3.org/1999/xlink" viewBox="0 0 467.07 219.59"><defs><style>.cls-1{fill:url(#linear-gradient);}.cls-2{fill:url(#linear-gradient-2);}.cls-3{fill:none;}.cls-4{fill:#fff;}.cls-5{fill:url(#New_Gradient_Swatch_2);}.cls-6{fill:url(#New_Gradient_Swatch_2-2);}.cls-7{fill:url(#New_Gradient_Swatch_2-3);}.cls-8{fill:url(#New_Gradient_Swatch_2-4);}.cls-9{fill:url(#New_Gradient_Swatch_2-5);}.cls-10{fill:url(#New_Gradient_Swatch_2-6);}.cls-11{fill:url(#New_Gradient_Swatch_2-7);}.cls-12{fill:url(#New_Gradient_Swatch_2-8);}.cls-13{fill:url(#New_Gradient_Swatch_2-9);}.cls-14{fill:url(#New_Gradient_Swatch_2-10);}.cls-15{fill:url(#New_Gradient_Swatch_2-11);}.cls-16{fill:url(#New_Gradient_Swatch_2-12);}</style><linearGradient id="linear-gradient" x1="318.39" y1="90.16" x2="334.79" y2="90.16" gradientUnits="userSpaceOnUse"><stop offset="0" stop-color="#e30613"/><stop offset="1" stop-color="#931004"/></linearGradient><linearGradient id="linear-gradient-2" x1="191.95" y1="323.8" x2="243.05" y2="323.8" gradientUnits="userSpaceOnUse"><stop offset="0" stop-color="#e40232"/><stop offset="0.31" stop-color="#e10230"/><stop offset="0.51" stop-color="#d9042c"/><stop offset="0.68" stop-color="#ca0723"/><stop offset="0.83" stop-color="#b50a17"/><stop offset="0.97" stop-color="#9a0f08"/><stop offset="1" stop-color="#931004"/></linearGradient><linearGradient id="New_Gradient_Swatch_2" x1="267.2" y1="359.04" x2="167.8" y2="186.87" gradientUnits="userSpaceOnUse"><stop offset="0" stop-color="#00779f"/><stop offset="0.47" stop-color="#00759d"/><stop offset="0.69" stop-color="#006f95"/><stop offset="0.86" stop-color="#006589"/><stop offset="1" stop-color="#005777"/></linearGradient><linearGradient id="New_Gradient_Swatch_2-2" x1="208.5" y1="199.02" x2="202.4" y2="188.45" xlink:href="#New_Gradient_Swatch_2"/><linearGradient id="New_Gradient_Swatch_2-3" x1="321.7" y1="370.93" x2="269.84" y2="281.1" xlink:href="#New_Gradient_Swatch_2"/><linearGradient id="New_Gradient_Swatch_2-4" x1="443.72" y1="378.99" x2="387.21" y2="281.1" xlink:href="#New_Gradient_Swatch_2"/><linearGradient id="New_Gradient_Swatch_2-5" x1="502.77" y1="369.75" x2="435.07" y2="252.48" xlink:href="#New_Gradient_Swatch_2"/><linearGradient id="New_Gradient_Swatch_2-6" x1="351.63" y1="210.14" x2="297.63" y2="116.6" xlink:href="#New_Gradient_Swatch_2"/><linearGradient id="New_Gradient_Swatch_2-7" x1="535.07" y1="382.33" x2="527.23" y2="368.74" xlink:href="#New_Gradient_Swatch_2"/><linearGradient id="New_Gradient_Swatch_2-8" x1="566.79" y1="377.07" x2="539.63" y2="330.02" xlink:href="#New_Gradient_Swatch_2"/><linearGradient id="New_Gradient_Swatch_2-9" x1="596.82" y1="377.07" x2="569.65" y2="330.02" xlink:href="#New_Gradient_Swatch_2"/><linearGradient id="New_Gradient_Swatch_2-10" x1="638.07" y1="386.15" x2="601.91" y2="323.53" xlink:href="#New_Gradient_Swatch_2"/><linearGradient id="New_Gradient_Swatch_2-11" x1="332.34" y1="250.55" x2="382.35" y2="250.55" xlink:href="#New_Gradient_Swatch_2"/><linearGradient id="New_Gradient_Swatch_2-12" x1="337.13" y1="315.38" x2="382.21" y2="315.38" xlink:href="#New_Gradient_Swatch_2"/></defs><g id="a3"><rect class="cls-1" x="318.39" y="77.54" width="16.41" height="25.22"/><path class="cls-2" d="M243.05,280v62.12a25.55,25.55,0,1,1-51.1,0V280Z" transform="translate(-177.95 -164.28)"/><path class="cls-3" d="M243.05,203.83V266H192V203.83a25.55,25.55,0,0,1,51.1,0Z" transform="translate(-177.95 -164.28)"/><path class="cls-4" d="M216.5,363v-3a18.43,18.43,0,0,0,18.41-18.41h3A21.43,21.43,0,0,1,216.5,363Z" transform="translate(-177.95 -164.28)"/><path class="cls-5" d="M243.05,251.72V203.83a25.55,25.55,0,0,0-51.1,0V266h65.1v76.12a39.55,39.55,0,1,1-79.1,0V294.19h14v47.89a25.55,25.55,0,1,0,51.1,0V280H178V203.83a39.55,39.55,0,0,1,79.1,0v47.89Z" transform="translate(-177.95 -164.28)"/><path class="cls-6" d="M198.08,205h-3a21.44,21.44,0,0,1,21.42-21.41v3A18.43,18.43,0,0,0,198.08,205Z" transform="translate(-177.95 -164.28)"/><path class="cls-7" d="M319.49,360.2a19.93,19.93,0,0,1-6.72,15.23q-6.72,6.19-17,6.2t-17-6.2A19.87,19.87,0,0,1,272,360.2V291.81a19.87,19.87,0,0,1,6.77-15.23q6.77-6.21,17-6.2t17,6.2a19.93,19.93,0,0,1,6.72,15.23v35.88H288.42v41.74q0,8.4,7.38,8.41t7.28-8.41V347.18h16.41Zm-16.41-36.3V282.58q0-8.41-7.28-8.41t-7.38,8.41V323.9Z" transform="translate(-177.95 -164.28)"/><path class="cls-8" d="M441.82,380.09H420.18v-3a17.35,17.35,0,0,1-11.79,4q-17.43,0-17.43-19.28v-24.2q0-20.29,24.2-20.3h5V282.07q0-8.42-6.15-8.41t-6,8.41v22.25H391.57v-13q0-9.75,6.1-15.59T414,269.86q10.35,0,16.4,5.85t6.05,15.59v85h5.34Zm-21.64-6.76v-52.2h-4.82q-8,0-8,8.31v39.48q0,8,5.64,8C415.39,376.92,417.79,375.72,420.18,373.33Z" transform="translate(-177.95 -164.28)"/><path class="cls-9" d="M483.07,381.12h-5.23q-10.24,0-17-6.26a19.93,19.93,0,0,1-6.71-15.17v-84h-5.34v-3.79h5.34V241.46l16.3-7.38v37.84h11.79v3.79H470.46v93.21q0,8.4,7.38,8.41h5.23Z" transform="translate(-177.95 -164.28)"/><polygon class="cls-10" points="340.02 216.84 313.16 216.84 313.16 213.05 318.39 213.05 318.39 111.43 313.16 111.43 313.16 107.64 334.79 107.64 334.79 213.05 340.02 213.05 340.02 216.84"/><path class="cls-11" d="M535.4,382.14h-8.49V368.93h8.49Z" transform="translate(-177.95 -164.28)"/><path class="cls-12" d="M565.64,371.45a10.47,10.47,0,0,1-3.52,8,13.82,13.82,0,0,1-17.81,0,10.42,10.42,0,0,1-3.54-8V335.63a10.42,10.42,0,0,1,3.54-8,13.82,13.82,0,0,1,17.81,0,10.47,10.47,0,0,1,3.52,8v6.82H557V330.79q0-4.4-3.81-4.4t-3.87,4.4v45.5q0,4.4,3.87,4.4t3.81-4.4V364.63h8.6Z" transform="translate(-177.95 -164.28)"/><path class="cls-13" d="M595.66,371.45a10.44,10.44,0,0,1-3.52,8,13.81,13.81,0,0,1-17.8,0,10.4,10.4,0,0,1-3.55-8V335.63a10.4,10.4,0,0,1,3.55-8,13.81,13.81,0,0,1,17.8,0,10.44,10.44,0,0,1,3.52,8Zm-8.59,4.84v-45.5c0-2.93-1.28-4.4-3.82-4.4s-3.86,1.47-3.86,4.4v45.5c0,2.93,1.28,4.4,3.86,4.4S587.07,379.22,587.07,376.29Z" transform="translate(-177.95 -164.28)"/><path class="cls-14" d="M645,382.14H633.69V330.79q0-4.19-3.17-4.19-2.47,0-4.94,2.64a12.84,12.84,0,0,1,1,5.26v45.65h2.74v2H618V330.79q0-4.19-3.22-4.19a5.59,5.59,0,0,0-4,1.88v51.67h2.79v2H599.47v-2h2.8V326.93h-2.8v-2h11.34v1.56a9.39,9.39,0,0,1,6.39-2.1c3.54,0,6.09,1.09,7.63,3.28a11,11,0,0,1,8.11-3.28q9.34,0,9.34,10.1v45.65H645Z" transform="translate(-177.95 -164.28)"/><path class="cls-15" d="M382.35,229.47v14.16c0,1,0,2.13-.14,3.26H334.79v23.42a1.46,1.46,0,0,1-.31,1,1.13,1.13,0,0,1-.92.36,1.15,1.15,0,0,1-.86-.36,1.31,1.31,0,0,1-.36-1V229.47Z" transform="translate(-177.95 -164.28)"/><path class="cls-16" d="M382.21,246.89a63.49,63.49,0,0,1-1.39,9q-1.53,6.93-7.13,23.73-7.12,21.09-9.47,33.15a129.51,129.51,0,0,0-2.34,24.7q0,7,.4,14.72t.41,9.22q0,12-4.48,18.12a10.25,10.25,0,0,1-8.45,4.38,11.15,11.15,0,0,1-9-4.53q-3.66-4.53-3.66-14.21a73,73,0,0,1,3.51-22.3q3.51-11,16.25-34.43,10.89-19.95,15.73-34.06a126.27,126.27,0,0,0,6.26-27.45Z" transform="translate(-177.95 -164.28)"/></g></svg>